<svg width="105" height="106"  viewBox="0 0 105 106" fill="none" xmlns="http://www.w3.org/2000/svg">
<mask id="path-1-outside-1_496_5676" maskUnits="userSpaceOnUse" x="0.03125" y="0.0625" width="105" height="106" fill="black">
<rect fill="white" x="0.03125" y="0.0625" width="105" height="106"/>
<path d="M52.4542 2.0625C24.6303 2.0625 2.03125 24.8921 2.03125 53C2.03125 81.1079 24.6303 103.938 52.4542 103.938C80.2782 103.938 102.877 81.1079 102.877 53C102.877 24.8921 80.2782 2.0625 52.4542 2.0625ZM52.4542 6.1375C78.0981 6.1375 98.8434 27.0944 98.8434 53C98.8434 78.9056 78.0981 99.8625 52.4542 99.8625C26.8103 99.8625 6.06509 78.9056 6.06509 53C6.06509 27.0944 26.8103 6.1375 52.4542 6.1375ZM52.4542 12.25C30.1998 12.25 12.1158 30.5185 12.1158 53C12.1158 62.1251 15.0923 70.5719 20.1166 77.3664C20.2751 77.5809 20.4739 77.7618 20.7017 77.8987C20.9295 78.0356 21.1817 78.1259 21.4439 78.1643C21.7062 78.2027 21.9734 78.1886 22.2303 78.1227C22.4872 78.0568 22.7287 77.9405 22.941 77.7803C23.1534 77.6201 23.3324 77.4193 23.4679 77.1892C23.6035 76.9591 23.6928 76.7043 23.7308 76.4394C23.7689 76.1744 23.7549 75.9045 23.6897 75.645C23.6244 75.3855 23.5093 75.1415 23.3507 74.927C18.8271 68.8095 16.1497 61.2312 16.1497 53C16.1497 32.7208 32.3799 16.325 52.4542 16.325C72.5286 16.325 88.7588 32.7208 88.7588 53C88.7588 73.2792 72.5286 89.675 52.4542 89.675C46.5988 89.675 41.0812 88.2802 36.1889 85.799C35.9522 85.6787 35.6944 85.6067 35.4302 85.5871C35.1659 85.5675 34.9005 85.6007 34.6489 85.6847C34.3974 85.7687 34.1647 85.902 33.9642 86.0769C33.7636 86.2518 33.5992 86.4649 33.4801 86.7041C33.3611 86.9432 33.2899 87.2037 33.2706 87.4706C33.2513 87.7375 33.2842 88.0057 33.3674 88.2598C33.4507 88.5139 33.5827 88.7489 33.7559 88.9514C33.9291 89.154 34.1401 89.3201 34.3768 89.4402C39.8148 92.1982 45.9629 93.75 52.4542 93.75C74.7086 93.75 92.7926 75.4815 92.7926 53C92.7926 30.5185 74.7086 12.25 52.4542 12.25ZM52.4228 28.5699C51.8885 28.5783 51.3794 28.8005 51.0072 29.1877C50.635 29.575 50.43 30.0956 50.4373 30.6353V34.3601C50.1771 34.4067 49.9166 34.4265 49.6573 34.4915H49.6533C44.9177 35.6791 41.4832 39.7855 41.4832 44.5636C41.4832 49.325 44.8988 53.4126 49.61 54.6158C52.4137 55.474 54.0898 55.1181 56.0428 55.921C58.7339 57.4158 59.9483 60.224 59.1746 62.9249C58.3933 65.6518 55.6801 67.6645 52.462 67.6645C49.2439 67.6645 46.5268 65.6518 45.7455 62.9249C45.6719 62.6677 45.5488 62.4277 45.3833 62.2186C45.2178 62.0095 45.0131 61.8354 44.781 61.7061C44.5489 61.5769 44.2938 61.4952 44.0304 61.4656C43.767 61.436 43.5004 61.459 43.2459 61.5335C42.9913 61.608 42.7537 61.7324 42.5468 61.8997C42.3398 62.0669 42.1675 62.2737 42.0397 62.5082C41.9118 62.7428 41.831 63.0004 41.8017 63.2665C41.7725 63.5326 41.7954 63.8019 41.8692 64.0591C43.0012 68.0099 46.4019 70.825 50.4372 71.5445V75.3648C50.4334 75.6348 50.4828 75.9029 50.5825 76.1534C50.6821 76.404 50.8301 76.632 51.0178 76.8243C51.2054 77.0166 51.429 77.1693 51.6756 77.2735C51.9222 77.3777 52.1868 77.4313 52.4541 77.4313C52.7214 77.4313 52.986 77.3777 53.2326 77.2735C53.4792 77.1693 53.7028 77.0166 53.8905 76.8243C54.0782 76.632 54.2261 76.404 54.3258 76.1534C54.4254 75.9029 54.4748 75.6348 54.471 75.3648V71.5485C58.5126 70.8337 61.9174 68.0151 63.0508 64.0591C64.3684 59.4597 62.1666 54.5771 57.8904 52.2678C57.8376 52.2403 57.7837 52.215 57.7288 52.1923C54.701 50.8919 52.6673 51.3158 50.7366 50.7119C50.7001 50.7002 50.6633 50.6896 50.6262 50.6801C47.529 49.9033 45.517 47.3701 45.517 44.5636C45.517 41.7561 47.5289 39.2239 50.6262 38.4471C53.7234 37.6712 56.9729 38.9692 58.5048 41.4516C58.645 41.6788 58.8281 41.8758 59.0436 42.0315C59.2592 42.1871 59.5029 42.2983 59.761 42.3588C60.0191 42.4193 60.2865 42.4278 60.5479 42.3838C60.8092 42.3399 61.0595 42.2444 61.2843 42.1027C61.5091 41.9611 61.7041 41.7761 61.8581 41.5583C62.0121 41.3405 62.1222 41.0942 62.182 40.8335C62.2418 40.5727 62.2501 40.3026 62.2065 40.0386C62.163 39.7746 62.0684 39.5218 61.9281 39.2948C60.2633 36.597 57.5104 34.8512 54.471 34.3164V30.6354C54.4747 30.3628 54.4242 30.0922 54.3225 29.8397C54.2208 29.5872 54.07 29.3578 53.879 29.1652C53.688 28.9726 53.4607 28.8207 53.2105 28.7185C52.9603 28.6163 52.6926 28.5656 52.4228 28.5699ZM82.4638 59.9203C82.2489 59.9337 82.0438 60.0163 81.8786 60.1559C81.7135 60.2956 81.5969 60.4849 81.546 60.6963C80.0732 66.3769 76.9967 71.5192 72.6826 75.4801C72.5801 75.5688 72.4963 75.6773 72.436 75.7992C72.3758 75.9212 72.3404 76.0541 72.332 76.1901C72.3235 76.3261 72.3421 76.4624 72.3867 76.591C72.4313 76.7196 72.5011 76.8379 72.5917 76.9388C72.6824 77.0397 72.7922 77.1212 72.9146 77.1785C73.037 77.2358 73.1695 77.2677 73.3043 77.2723C73.4391 77.2769 73.5735 77.2542 73.6995 77.2054C73.8254 77.1567 73.9404 77.0828 74.0377 76.9884C78.6417 72.7613 81.9282 67.2758 83.4999 61.2137C83.5411 61.0653 83.5484 60.9094 83.5214 60.7578C83.4943 60.6061 83.4336 60.4627 83.3437 60.3382C83.2538 60.2137 83.1372 60.1114 83.0025 60.039C82.8678 59.9666 82.7187 59.9261 82.5663 59.9203C82.5321 59.9186 82.498 59.9186 82.4638 59.9203ZM69.3105 78.3494C69.1181 78.3532 68.9309 78.4126 68.7708 78.5205C68.3527 78.7932 67.9245 79.0554 67.4906 79.3085C67.2586 79.4436 67.0893 79.6662 67.0199 79.9274C66.9505 80.1886 66.9866 80.467 67.1203 80.7013C67.254 80.9356 67.4744 81.1066 67.733 81.1768C67.9915 81.2469 68.2671 81.2105 68.499 81.0754C68.962 80.8054 69.4159 80.5227 69.862 80.2317C70.0488 80.1136 70.1921 79.9369 70.2701 79.7288C70.3481 79.5206 70.3564 79.2924 70.2939 79.079C70.2314 78.8655 70.1014 78.6787 69.9238 78.5469C69.7462 78.4152 69.5308 78.3458 69.3105 78.3494ZM27.2901 80.1003C26.8719 80.0868 26.4598 80.2049 26.111 80.4384C25.7622 80.6719 25.494 81.0092 25.3434 81.4035C25.1928 81.7979 25.1673 82.2298 25.2704 82.6394C25.3736 83.0491 25.6003 83.4161 25.9192 83.6898C26.4374 84.1474 26.9656 84.5923 27.5067 85.023C27.714 85.1949 27.9532 85.3234 28.2103 85.4008C28.4673 85.4783 28.7371 85.5031 29.0038 85.474C29.2705 85.4448 29.5287 85.3622 29.7634 85.231C29.9981 85.0998 30.2045 84.9226 30.3706 84.7099C30.5367 84.4971 30.6591 84.253 30.7307 83.9918C30.8023 83.7307 30.8216 83.4577 30.7875 83.1889C30.7533 82.9201 30.6665 82.6609 30.532 82.4265C30.3975 82.192 30.2181 81.987 30.0042 81.8234C29.517 81.4356 29.0409 81.0337 28.5743 80.6217C28.2205 80.3003 27.7656 80.1157 27.2901 80.1003Z"/>
</mask>
<path d="M52.4542 2.0625C24.6303 2.0625 2.03125 24.8921 2.03125 53C2.03125 81.1079 24.6303 103.938 52.4542 103.938C80.2782 103.938 102.877 81.1079 102.877 53C102.877 24.8921 80.2782 2.0625 52.4542 2.0625ZM52.4542 6.1375C78.0981 6.1375 98.8434 27.0944 98.8434 53C98.8434 78.9056 78.0981 99.8625 52.4542 99.8625C26.8103 99.8625 6.06509 78.9056 6.06509 53C6.06509 27.0944 26.8103 6.1375 52.4542 6.1375ZM52.4542 12.25C30.1998 12.25 12.1158 30.5185 12.1158 53C12.1158 62.1251 15.0923 70.5719 20.1166 77.3664C20.2751 77.5809 20.4739 77.7618 20.7017 77.8987C20.9295 78.0356 21.1817 78.1259 21.4439 78.1643C21.7062 78.2027 21.9734 78.1886 22.2303 78.1227C22.4872 78.0568 22.7287 77.9405 22.941 77.7803C23.1534 77.6201 23.3324 77.4193 23.4679 77.1892C23.6035 76.9591 23.6928 76.7043 23.7308 76.4394C23.7689 76.1744 23.7549 75.9045 23.6897 75.645C23.6244 75.3855 23.5093 75.1415 23.3507 74.927C18.8271 68.8095 16.1497 61.2312 16.1497 53C16.1497 32.7208 32.3799 16.325 52.4542 16.325C72.5286 16.325 88.7588 32.7208 88.7588 53C88.7588 73.2792 72.5286 89.675 52.4542 89.675C46.5988 89.675 41.0812 88.2802 36.1889 85.799C35.9522 85.6787 35.6944 85.6067 35.4302 85.5871C35.1659 85.5675 34.9005 85.6007 34.6489 85.6847C34.3974 85.7687 34.1647 85.902 33.9642 86.0769C33.7636 86.2518 33.5992 86.4649 33.4801 86.7041C33.3611 86.9432 33.2899 87.2037 33.2706 87.4706C33.2513 87.7375 33.2842 88.0057 33.3674 88.2598C33.4507 88.5139 33.5827 88.7489 33.7559 88.9514C33.9291 89.154 34.1401 89.3201 34.3768 89.4402C39.8148 92.1982 45.9629 93.75 52.4542 93.75C74.7086 93.75 92.7926 75.4815 92.7926 53C92.7926 30.5185 74.7086 12.25 52.4542 12.25ZM52.4228 28.5699C51.8885 28.5783 51.3794 28.8005 51.0072 29.1877C50.635 29.575 50.43 30.0956 50.4373 30.6353V34.3601C50.1771 34.4067 49.9166 34.4265 49.6573 34.4915H49.6533C44.9177 35.6791 41.4832 39.7855 41.4832 44.5636C41.4832 49.325 44.8988 53.4126 49.61 54.6158C52.4137 55.474 54.0898 55.1181 56.0428 55.921C58.7339 57.4158 59.9483 60.224 59.1746 62.9249C58.3933 65.6518 55.6801 67.6645 52.462 67.6645C49.2439 67.6645 46.5268 65.6518 45.7455 62.9249C45.6719 62.6677 45.5488 62.4277 45.3833 62.2186C45.2178 62.0095 45.0131 61.8354 44.781 61.7061C44.5489 61.5769 44.2938 61.4952 44.0304 61.4656C43.767 61.436 43.5004 61.459 43.2459 61.5335C42.9913 61.608 42.7537 61.7324 42.5468 61.8997C42.3398 62.0669 42.1675 62.2737 42.0397 62.5082C41.9118 62.7428 41.831 63.0004 41.8017 63.2665C41.7725 63.5326 41.7954 63.8019 41.8692 64.0591C43.0012 68.0099 46.4019 70.825 50.4372 71.5445V75.3648C50.4334 75.6348 50.4828 75.9029 50.5825 76.1534C50.6821 76.404 50.8301 76.632 51.0178 76.8243C51.2054 77.0166 51.429 77.1693 51.6756 77.2735C51.9222 77.3777 52.1868 77.4313 52.4541 77.4313C52.7214 77.4313 52.986 77.3777 53.2326 77.2735C53.4792 77.1693 53.7028 77.0166 53.8905 76.8243C54.0782 76.632 54.2261 76.404 54.3258 76.1534C54.4254 75.9029 54.4748 75.6348 54.471 75.3648V71.5485C58.5126 70.8337 61.9174 68.0151 63.0508 64.0591C64.3684 59.4597 62.1666 54.5771 57.8904 52.2678C57.8376 52.2403 57.7837 52.215 57.7288 52.1923C54.701 50.8919 52.6673 51.3158 50.7366 50.7119C50.7001 50.7002 50.6633 50.6896 50.6262 50.6801C47.529 49.9033 45.517 47.3701 45.517 44.5636C45.517 41.7561 47.5289 39.2239 50.6262 38.4471C53.7234 37.6712 56.9729 38.9692 58.5048 41.4516C58.645 41.6788 58.8281 41.8758 59.0436 42.0315C59.2592 42.1871 59.5029 42.2983 59.761 42.3588C60.0191 42.4193 60.2865 42.4278 60.5479 42.3838C60.8092 42.3399 61.0595 42.2444 61.2843 42.1027C61.5091 41.9611 61.7041 41.7761 61.8581 41.5583C62.0121 41.3405 62.1222 41.0942 62.182 40.8335C62.2418 40.5727 62.2501 40.3026 62.2065 40.0386C62.163 39.7746 62.0684 39.5218 61.9281 39.2948C60.2633 36.597 57.5104 34.8512 54.471 34.3164V30.6354C54.4747 30.3628 54.4242 30.0922 54.3225 29.8397C54.2208 29.5872 54.07 29.3578 53.879 29.1652C53.688 28.9726 53.4607 28.8207 53.2105 28.7185C52.9603 28.6163 52.6926 28.5656 52.4228 28.5699ZM82.4638 59.9203C82.2489 59.9337 82.0438 60.0163 81.8786 60.1559C81.7135 60.2956 81.5969 60.4849 81.546 60.6963C80.0732 66.3769 76.9967 71.5192 72.6826 75.4801C72.5801 75.5688 72.4963 75.6773 72.436 75.7992C72.3758 75.9212 72.3404 76.0541 72.332 76.1901C72.3235 76.3261 72.3421 76.4624 72.3867 76.591C72.4313 76.7196 72.5011 76.8379 72.5917 76.9388C72.6824 77.0397 72.7922 77.1212 72.9146 77.1785C73.037 77.2358 73.1695 77.2677 73.3043 77.2723C73.4391 77.2769 73.5735 77.2542 73.6995 77.2054C73.8254 77.1567 73.9404 77.0828 74.0377 76.9884C78.6417 72.7613 81.9282 67.2758 83.4999 61.2137C83.5411 61.0653 83.5484 60.9094 83.5214 60.7578C83.4943 60.6061 83.4336 60.4627 83.3437 60.3382C83.2538 60.2137 83.1372 60.1114 83.0025 60.039C82.8678 59.9666 82.7187 59.9261 82.5663 59.9203C82.5321 59.9186 82.498 59.9186 82.4638 59.9203ZM69.3105 78.3494C69.1181 78.3532 68.9309 78.4126 68.7708 78.5205C68.3527 78.7932 67.9245 79.0554 67.4906 79.3085C67.2586 79.4436 67.0893 79.6662 67.0199 79.9274C66.9505 80.1886 66.9866 80.467 67.1203 80.7013C67.254 80.9356 67.4744 81.1066 67.733 81.1768C67.9915 81.2469 68.2671 81.2105 68.499 81.0754C68.962 80.8054 69.4159 80.5227 69.862 80.2317C70.0488 80.1136 70.1921 79.9369 70.2701 79.7288C70.3481 79.5206 70.3564 79.2924 70.2939 79.079C70.2314 78.8655 70.1014 78.6787 69.9238 78.5469C69.7462 78.4152 69.5308 78.3458 69.3105 78.3494ZM27.2901 80.1003C26.8719 80.0868 26.4598 80.2049 26.111 80.4384C25.7622 80.6719 25.494 81.0092 25.3434 81.4035C25.1928 81.7979 25.1673 82.2298 25.2704 82.6394C25.3736 83.0491 25.6003 83.4161 25.9192 83.6898C26.4374 84.1474 26.9656 84.5923 27.5067 85.023C27.714 85.1949 27.9532 85.3234 28.2103 85.4008C28.4673 85.4783 28.7371 85.5031 29.0038 85.474C29.2705 85.4448 29.5287 85.3622 29.7634 85.231C29.9981 85.0998 30.2045 84.9226 30.3706 84.7099C30.5367 84.4971 30.6591 84.253 30.7307 83.9918C30.8023 83.7307 30.8216 83.4577 30.7875 83.1889C30.7533 82.9201 30.6665 82.6609 30.532 82.4265C30.3975 82.192 30.2181 81.987 30.0042 81.8234C29.517 81.4356 29.0409 81.0337 28.5743 80.6217C28.2205 80.3003 27.7656 80.1157 27.2901 80.1003Z" fill="white"/>
<path d="M52.4542 2.0625C24.6303 2.0625 2.03125 24.8921 2.03125 53C2.03125 81.1079 24.6303 103.938 52.4542 103.938C80.2782 103.938 102.877 81.1079 102.877 53C102.877 24.8921 80.2782 2.0625 52.4542 2.0625ZM52.4542 6.1375C78.0981 6.1375 98.8434 27.0944 98.8434 53C98.8434 78.9056 78.0981 99.8625 52.4542 99.8625C26.8103 99.8625 6.06509 78.9056 6.06509 53C6.06509 27.0944 26.8103 6.1375 52.4542 6.1375ZM52.4542 12.25C30.1998 12.25 12.1158 30.5185 12.1158 53C12.1158 62.1251 15.0923 70.5719 20.1166 77.3664C20.2751 77.5809 20.4739 77.7618 20.7017 77.8987C20.9295 78.0356 21.1817 78.1259 21.4439 78.1643C21.7062 78.2027 21.9734 78.1886 22.2303 78.1227C22.4872 78.0568 22.7287 77.9405 22.941 77.7803C23.1534 77.6201 23.3324 77.4193 23.4679 77.1892C23.6035 76.9591 23.6928 76.7043 23.7308 76.4394C23.7689 76.1744 23.7549 75.9045 23.6897 75.645C23.6244 75.3855 23.5093 75.1415 23.3507 74.927C18.8271 68.8095 16.1497 61.2312 16.1497 53C16.1497 32.7208 32.3799 16.325 52.4542 16.325C72.5286 16.325 88.7588 32.7208 88.7588 53C88.7588 73.2792 72.5286 89.675 52.4542 89.675C46.5988 89.675 41.0812 88.2802 36.1889 85.799C35.9522 85.6787 35.6944 85.6067 35.4302 85.5871C35.1659 85.5675 34.9005 85.6007 34.6489 85.6847C34.3974 85.7687 34.1647 85.902 33.9642 86.0769C33.7636 86.2518 33.5992 86.4649 33.4801 86.7041C33.3611 86.9432 33.2899 87.2037 33.2706 87.4706C33.2513 87.7375 33.2842 88.0057 33.3674 88.2598C33.4507 88.5139 33.5827 88.7489 33.7559 88.9514C33.9291 89.154 34.1401 89.3201 34.3768 89.4402C39.8148 92.1982 45.9629 93.75 52.4542 93.75C74.7086 93.75 92.7926 75.4815 92.7926 53C92.7926 30.5185 74.7086 12.25 52.4542 12.25ZM52.4228 28.5699C51.8885 28.5783 51.3794 28.8005 51.0072 29.1877C50.635 29.575 50.43 30.0956 50.4373 30.6353V34.3601C50.1771 34.4067 49.9166 34.4265 49.6573 34.4915H49.6533C44.9177 35.6791 41.4832 39.7855 41.4832 44.5636C41.4832 49.325 44.8988 53.4126 49.61 54.6158C52.4137 55.474 54.0898 55.1181 56.0428 55.921C58.7339 57.4158 59.9483 60.224 59.1746 62.9249C58.3933 65.6518 55.6801 67.6645 52.462 67.6645C49.2439 67.6645 46.5268 65.6518 45.7455 62.9249C45.6719 62.6677 45.5488 62.4277 45.3833 62.2186C45.2178 62.0095 45.0131 61.8354 44.781 61.7061C44.5489 61.5769 44.2938 61.4952 44.0304 61.4656C43.767 61.436 43.5004 61.459 43.2459 61.5335C42.9913 61.608 42.7537 61.7324 42.5468 61.8997C42.3398 62.0669 42.1675 62.2737 42.0397 62.5082C41.9118 62.7428 41.831 63.0004 41.8017 63.2665C41.7725 63.5326 41.7954 63.8019 41.8692 64.0591C43.0012 68.0099 46.4019 70.825 50.4372 71.5445V75.3648C50.4334 75.6348 50.4828 75.9029 50.5825 76.1534C50.6821 76.404 50.8301 76.632 51.0178 76.8243C51.2054 77.0166 51.429 77.1693 51.6756 77.2735C51.9222 77.3777 52.1868 77.4313 52.4541 77.4313C52.7214 77.4313 52.986 77.3777 53.2326 77.2735C53.4792 77.1693 53.7028 77.0166 53.8905 76.8243C54.0782 76.632 54.2261 76.404 54.3258 76.1534C54.4254 75.9029 54.4748 75.6348 54.471 75.3648V71.5485C58.5126 70.8337 61.9174 68.0151 63.0508 64.0591C64.3684 59.4597 62.1666 54.5771 57.8904 52.2678C57.8376 52.2403 57.7837 52.215 57.7288 52.1923C54.701 50.8919 52.6673 51.3158 50.7366 50.7119C50.7001 50.7002 50.6633 50.6896 50.6262 50.6801C47.529 49.9033 45.517 47.3701 45.517 44.5636C45.517 41.7561 47.5289 39.2239 50.6262 38.4471C53.7234 37.6712 56.9729 38.9692 58.5048 41.4516C58.645 41.6788 58.8281 41.8758 59.0436 42.0315C59.2592 42.1871 59.5029 42.2983 59.761 42.3588C60.0191 42.4193 60.2865 42.4278 60.5479 42.3838C60.8092 42.3399 61.0595 42.2444 61.2843 42.1027C61.5091 41.9611 61.7041 41.7761 61.8581 41.5583C62.0121 41.3405 62.1222 41.0942 62.182 40.8335C62.2418 40.5727 62.2501 40.3026 62.2065 40.0386C62.163 39.7746 62.0684 39.5218 61.9281 39.2948C60.2633 36.597 57.5104 34.8512 54.471 34.3164V30.6354C54.4747 30.3628 54.4242 30.0922 54.3225 29.8397C54.2208 29.5872 54.07 29.3578 53.879 29.1652C53.688 28.9726 53.4607 28.8207 53.2105 28.7185C52.9603 28.6163 52.6926 28.5656 52.4228 28.5699ZM82.4638 59.9203C82.2489 59.9337 82.0438 60.0163 81.8786 60.1559C81.7135 60.2956 81.5969 60.4849 81.546 60.6963C80.0732 66.3769 76.9967 71.5192 72.6826 75.4801C72.5801 75.5688 72.4963 75.6773 72.436 75.7992C72.3758 75.9212 72.3404 76.0541 72.332 76.1901C72.3235 76.3261 72.3421 76.4624 72.3867 76.591C72.4313 76.7196 72.5011 76.8379 72.5917 76.9388C72.6824 77.0397 72.7922 77.1212 72.9146 77.1785C73.037 77.2358 73.1695 77.2677 73.3043 77.2723C73.4391 77.2769 73.5735 77.2542 73.6995 77.2054C73.8254 77.1567 73.9404 77.0828 74.0377 76.9884C78.6417 72.7613 81.9282 67.2758 83.4999 61.2137C83.5411 61.0653 83.5484 60.9094 83.5214 60.7578C83.4943 60.6061 83.4336 60.4627 83.3437 60.3382C83.2538 60.2137 83.1372 60.1114 83.0025 60.039C82.8678 59.9666 82.7187 59.9261 82.5663 59.9203C82.5321 59.9186 82.498 59.9186 82.4638 59.9203ZM69.3105 78.3494C69.1181 78.3532 68.9309 78.4126 68.7708 78.5205C68.3527 78.7932 67.9245 79.0554 67.4906 79.3085C67.2586 79.4436 67.0893 79.6662 67.0199 79.9274C66.9505 80.1886 66.9866 80.467 67.1203 80.7013C67.254 80.9356 67.4744 81.1066 67.733 81.1768C67.9915 81.2469 68.2671 81.2105 68.499 81.0754C68.962 80.8054 69.4159 80.5227 69.862 80.2317C70.0488 80.1136 70.1921 79.9369 70.2701 79.7288C70.3481 79.5206 70.3564 79.2924 70.2939 79.079C70.2314 78.8655 70.1014 78.6787 69.9238 78.5469C69.7462 78.4152 69.5308 78.3458 69.3105 78.3494ZM27.2901 80.1003C26.8719 80.0868 26.4598 80.2049 26.111 80.4384C25.7622 80.6719 25.494 81.0092 25.3434 81.4035C25.1928 81.7979 25.1673 82.2298 25.2704 82.6394C25.3736 83.0491 25.6003 83.4161 25.9192 83.6898C26.4374 84.1474 26.9656 84.5923 27.5067 85.023C27.714 85.1949 27.9532 85.3234 28.2103 85.4008C28.4673 85.4783 28.7371 85.5031 29.0038 85.474C29.2705 85.4448 29.5287 85.3622 29.7634 85.231C29.9981 85.0998 30.2045 84.9226 30.3706 84.7099C30.5367 84.4971 30.6591 84.253 30.7307 83.9918C30.8023 83.7307 30.8216 83.4577 30.7875 83.1889C30.7533 82.9201 30.6665 82.6609 30.532 82.4265C30.3975 82.192 30.2181 81.987 30.0042 81.8234C29.517 81.4356 29.0409 81.0337 28.5743 80.6217C28.2205 80.3003 27.7656 80.1157 27.2901 80.1003Z" stroke="white" stroke-width="2.8" mask="url(#path-1-outside-1_496_5676)"/>
</svg>
