<svg  viewBox="0 0 168 96" width="168" height="96" fill="none" xmlns="http://www.w3.org/2000/svg">
<path fill-rule="evenodd" clip-rule="evenodd" d="M24.4914 64.3517C24.0554 64.3518 23.6254 64.2491 23.237 64.0519L2.36064 53.3522C1.71699 53.0226 1.23064 52.4529 1.00789 51.7676C0.78515 51.0822 0.844124 50.337 1.17193 49.6948L25.6966 1.49456C25.8594 1.17451 26.0841 0.889591 26.3578 0.656139C26.6315 0.422686 26.9489 0.245296 27.2916 0.134142C27.6344 0.0229879 27.9958 -0.0197423 28.3552 0.00840075C28.7146 0.0365438 29.0649 0.135005 29.386 0.298141L49.2462 10.3819C49.8838 10.7047 50.3692 11.263 50.5985 11.9373C50.8278 12.6116 50.7828 13.3485 50.4732 13.9902L48.4856 18.1163L52.8221 20.5452C55.3885 18.9973 60.9431 15.6642 64.4983 13.6665C69.6195 10.7808 73.4036 10.7915 77.4463 13.8728C83.1752 10.2285 88.105 8.30394 93.513 10.7265C96.8984 12.2445 108.914 16.8749 112.327 18.1885L121.503 15.1953L120.051 11.6111C119.913 11.2707 119.845 10.9061 119.852 10.5391C119.859 10.1721 119.94 9.81029 120.091 9.47534C120.242 9.14039 120.46 8.83923 120.73 8.58993C121.001 8.34062 121.32 8.14832 121.667 8.02454L143.76 0.159225C144.428 -0.0786478 145.163 -0.0490665 145.81 0.241735C146.457 0.532537 146.965 1.06185 147.227 1.71812L167.495 52.3385C167.628 52.6731 167.693 53.0306 167.686 53.3903C167.679 53.75 167.6 54.1047 167.455 54.4341C167.31 54.7634 167.1 55.0609 166.839 55.3093C166.577 55.5577 166.269 55.7522 165.931 55.8814L144.244 64.161C143.932 64.2839 143.6 64.3485 143.264 64.3518C142.718 64.3515 142.185 64.189 141.732 63.885C141.28 63.581 140.929 63.1495 140.725 62.6457L139.114 58.6697L134.817 60.5683C134.832 60.6025 134.846 60.6368 134.861 60.6712C135.348 61.8286 135.594 63.0724 135.584 64.3272C135.574 65.5821 135.307 66.8218 134.801 67.9712C134.295 69.1206 133.559 70.1556 132.639 71.0137C130.532 72.9161 127.765 73.9311 124.921 73.8453C124.812 73.8481 124.704 73.8492 124.596 73.8486C124.084 75.1738 123.353 76.4113 122.427 77.5073C120.927 79.2828 118.972 80.6209 116.77 81.3797C115.425 81.8547 114.009 82.1016 112.582 82.11C112.06 82.1256 111.542 82.0973 111.031 82.0269C110.166 83.6285 108.961 85.0362 107.486 86.1453C105.331 87.767 102.712 88.6646 100.013 88.7113C99.7725 89.5168 99.4266 90.2919 98.9808 91.016C97.9836 92.6357 96.5302 93.9283 94.8012 94.7333C93.1202 95.5613 91.2702 95.993 89.3945 95.9951C87.1554 96.0426 84.9657 95.3368 83.1798 93.992C81.2627 92.4648 79.3387 90.9461 77.4079 89.4361C75.8765 91.4347 73.885 93.0703 71.5723 94.1887C70.7169 94.5485 69.7976 94.7338 68.8689 94.7337C67.9787 94.7305 67.0976 94.5546 66.2751 94.2159C64.0417 93.1255 62.2006 91.3763 61.0026 89.2067C59.0588 89.582 57.0444 89.2808 55.2973 88.3537C53.8318 87.3979 52.572 86.1616 51.5911 84.7168C51.3211 84.3191 51.0737 83.9077 50.8498 83.4848C49.9236 83.8333 48.9401 84.036 47.9345 84.0777C47.2855 84.0795 46.6397 83.9877 46.0172 83.8051C42.4772 82.7462 40.5619 79.0451 39.7513 76.9979C36.7617 75.7048 29.6567 71.9075 29.6567 65.0435C29.6564 64.7577 29.7008 64.4736 29.7882 64.2014C30.1614 63.1795 30.5864 62.1785 31.0614 61.202L28.5543 59.4901L26.962 62.7955C26.8031 63.1237 26.58 63.4171 26.3058 63.6586C26.0317 63.9001 25.7119 64.0847 25.3652 64.2018C25.0837 64.2974 24.7888 64.3479 24.4914 64.3517ZM24.9082 54.4568L23.2397 57.9199L7.28803 49.7439L29.3421 6.41107L44.379 14.042L42.5274 17.8855L42.5181 17.9017C42.4561 18.0113 42.402 18.1248 42.3559 18.2413L25.0936 54.0718C25.0215 54.1957 24.9596 54.3244 24.9082 54.4568ZM30.9515 54.514L33.8742 56.5098C35.1248 55.0509 36.8368 54.0572 38.7303 53.6929C40.65 53.3236 42.6389 53.6238 44.3622 54.5428C45.9845 55.2581 47.2782 56.5526 47.9881 58.1707C48.3284 58.9463 48.5227 59.7692 48.5693 60.5998C49.8189 59.5313 51.341 58.8047 52.9851 58.5109C55.2611 58.1042 57.6077 58.5562 59.5668 59.7786C60.8948 60.6954 62.0407 62.1659 62.4115 64.0669C63.1596 64.0254 63.9122 64.0749 64.6525 64.2159C65.9994 64.4724 67.2715 65.0254 68.3759 65.8343C69.5997 66.6404 70.5825 67.7599 71.2207 69.0751C71.8589 70.3902 72.1289 71.8522 72.0023 73.3071C73.3051 73.363 74.5807 73.6962 75.743 74.2844C76.9053 74.8725 77.9274 75.7019 78.7401 76.7165C79.5296 77.9441 80.0335 79.3316 80.215 80.7778C80.3716 82.0257 80.2847 83.2901 79.9611 84.5021C81.2222 85.4865 83.7542 87.4697 86.6035 89.7378C87.4701 90.251 88.4557 90.5316 89.4639 90.5521C90.4721 90.5727 91.4684 90.3325 92.3553 89.855C93.1483 89.5157 93.8193 88.9453 94.2799 88.2189C94.4616 87.9324 94.6072 87.6269 94.7148 87.3093C94.359 87.0772 94.0188 86.818 93.6975 86.5328L83.9688 76.8524L87.8444 72.9961L97.5732 82.6765C98.1752 83.0129 98.8415 83.2197 99.5289 83.2835C100.216 83.3474 100.91 83.2668 101.564 83.0471C102.82 82.7402 103.971 82.103 104.895 81.2021C105.353 80.7559 105.747 80.2531 106.068 79.7081C102.206 76.2389 93.275 67.3578 92.886 66.9708C92.3871 66.4568 92.1111 65.7684 92.1173 65.0538C92.1235 64.3392 92.4116 63.6557 92.9194 63.1504C93.4272 62.6451 94.1142 62.3585 94.8324 62.3523C95.5505 62.346 96.2424 62.6207 96.7589 63.1172C96.8548 63.2126 106.474 72.7785 110.018 75.9263C110.13 75.9943 110.245 76.0581 110.362 76.1175C110.514 76.171 110.66 76.2378 110.8 76.3168C111.323 76.5265 111.877 76.6533 112.443 76.6908C113.301 76.7478 114.161 76.5977 114.948 76.2533C116.235 75.8168 117.375 75.0372 118.247 73.9996C118.663 73.5034 119.011 72.9573 119.282 72.3763L119.246 72.3545C116.726 70.6812 105.638 59.8616 103.442 57.7113C102.958 57.1984 102.691 56.519 102.699 55.8153C102.707 55.1116 102.988 54.4381 103.484 53.936C103.979 53.4338 104.651 53.1418 105.357 53.1211C106.064 53.1004 106.752 53.3526 107.276 53.825C112.206 58.6679 120.664 66.7485 122.278 67.8196C123.317 68.2976 124.467 68.4882 125.607 68.3711C126.746 68.2541 127.833 67.8339 128.753 67.1546C129.183 66.783 129.527 66.3218 129.759 65.8036C129.991 65.2854 130.105 64.7229 130.095 64.1558C130.084 63.5886 129.949 63.0307 129.698 62.5213C129.52 62.1598 129.287 61.8291 129.008 61.5403L128.995 61.5303L128.974 61.5138C128.869 61.4289 128.771 61.3367 128.68 61.2383C128.668 61.2281 128.655 61.2179 128.643 61.2079C125.844 58.0738 114.214 46.9408 111.661 44.4989C102.754 41.2501 94.1163 37.3118 85.8275 32.72L82.9461 34.595C82.2992 37.5831 80.5733 40.2313 78.0954 42.0379C77.2257 42.7196 76.216 43.2028 75.1378 43.4534C74.0596 43.7039 72.9393 43.7157 71.8561 43.4878C70.5416 43.3248 69.2758 42.8906 68.1396 42.2129C67.0034 41.5353 66.0219 40.6291 65.2579 39.5524C63.8014 36.4559 63.6379 32.9111 64.8032 29.6949C66.5358 22.795 69.0683 19.6945 72.4005 17.2012C70.9327 16.6911 69.4803 17.1247 67.1934 18.4086C62.6248 20.9786 54.3833 25.9768 54.2984 26.0395C53.8658 26.2973 53.3701 26.4312 52.8659 26.4265C52.3947 26.4264 51.9315 26.3053 51.5211 26.075L46.1121 23.0431L30.9515 54.514ZM36.8825 61.9277C36.9767 61.7963 37.0591 61.6565 37.1286 61.51C37.497 60.8968 37.8889 60.2973 38.3036 59.7128C38.8154 59.3144 39.4343 59.0759 40.0822 59.0274C40.73 58.9789 41.3778 59.1226 41.9437 59.4402C42.1678 59.5068 42.3751 59.6202 42.5516 59.7729C42.7281 59.9256 42.8699 60.114 42.9674 60.3255C43.0648 60.5371 43.1158 60.7669 43.1169 60.9996C43.118 61.2323 43.0691 61.4626 42.9736 61.675C41.9328 65.019 40.8728 68.6355 40.1579 71.121C38.0544 69.9573 35.4305 68.0169 35.1566 65.4659C35.6489 64.247 36.2258 63.0648 36.8825 61.9277ZM60.9793 70.354C60.9979 70.3235 61.0162 70.293 61.0343 70.2626C61.0554 70.2272 61.0763 70.1918 61.0969 70.1565C61.4047 69.835 61.8099 69.6214 62.2516 69.5489C62.7797 69.4601 63.3206 69.4824 63.8395 69.6143C64.3584 69.7462 64.8438 69.9848 65.2644 70.3147C65.8173 70.6765 66.2301 71.2144 66.4352 71.8404C66.6402 72.4664 66.6253 73.1431 66.3929 73.7596L60.5452 83.7343C60.1171 83.8866 59.6622 83.95 59.2085 83.9204C58.7548 83.8909 58.3121 83.7691 57.9076 83.5626C56.6119 82.6575 55.6674 81.3377 55.2316 79.8234C56.7997 77.3704 60.1301 72.1107 60.9793 70.354ZM56.2189 67.6481C56.1607 67.7414 56.1084 67.838 56.0622 67.9373L56.0451 67.9709C55.5606 69.0537 52.4067 74.1092 50.1855 77.5666C49.4696 78.1337 48.399 78.8243 47.5921 78.5861C46.5485 78.2781 45.5269 76.6457 44.9271 75.2203C46.9638 71.7932 49.1903 68.4814 51.5964 65.3001C52.144 64.5767 52.9347 64.0735 53.8243 63.8824C54.7139 63.6912 55.643 63.8249 56.4417 64.259C57.4565 64.9601 57.0022 66.3051 56.3685 67.3992C56.3169 67.4811 56.267 67.564 56.2189 67.6481ZM137.065 53.6109L123.555 20.2607L113.105 23.6691C112.506 23.8635 111.858 23.8481 111.27 23.6255L110.941 23.4991C108.588 22.5954 95.0651 17.4016 91.2753 15.7003C88.8349 14.6101 86.2575 14.7219 80.2975 18.5319L79.1198 19.2814C74.3348 22.3037 71.9328 23.8245 70.125 31.0166C69.1993 34.7013 69.6265 36.1948 69.9634 36.7398C70.3962 37.4593 71.3987 37.7509 72.9955 38.1488C73.3382 38.2063 73.6896 38.1872 74.024 38.0929C74.3584 37.9987 74.6676 37.8316 74.9292 37.6038C75.7017 37.0247 76.3469 36.2943 76.8251 35.4576C77.3032 34.621 77.6041 33.6958 77.7092 32.7391C77.745 32.3282 77.874 31.9307 78.0866 31.5767C78.2991 31.2226 78.5897 30.9212 78.9363 30.6951L84.2088 27.2639C84.6243 26.9949 85.1055 26.8433 85.6008 26.825C86.0962 26.8068 86.5873 26.9227 87.0217 27.1603L87.0338 27.1669C87.5995 27.4739 105.76 37.3319 113.762 39.4243C114.212 39.5438 114.624 39.7733 114.962 40.092L114.997 40.1257C115.862 40.9505 126.742 51.3223 131.37 56.1212L137.065 53.6109ZM144.789 58.1135L126.189 12.1998L143.116 6.17676L161.371 51.7907L144.789 58.1135ZM65.615 86.228C66.475 87.6751 68.0116 89.7518 69.4496 89.155C71.8369 87.9177 73.6749 85.8392 74.6043 83.3255C74.7872 82.7692 74.8571 82.1823 74.8101 81.5989C74.7631 81.0155 74.6 80.4472 74.3304 79.927C73.9137 79.5209 73.4191 79.2026 72.876 78.9909C72.333 78.7793 71.7526 78.6787 71.1696 78.6951L65.615 86.228Z" fill="white"/>
</svg>