<svg  width="95" height="103" viewBox="0 0 95 103" fill="none" xmlns="http://www.w3.org/2000/svg">

<mask id="path-1-outside-1_496_5668" maskUnits="userSpaceOnUse" x="0" y="0.601562" width="95" height="102" fill="black">
<rect fill="white" y="0.601562" width="95" height="102"/>
<path fill-rule="evenodd" clip-rule="evenodd" d="M48.405 2.14225C48.7666 2.45561 63.3616 15.1046 89.6294 14.2173C90.1188 14.2084 90.5956 14.3724 90.9759 14.6805C91.3562 14.9885 91.6157 15.4209 91.7086 15.9014C91.8749 16.6084 104.579 86.365 47.5467 101.335C47.2052 101.418 46.8487 101.418 46.5071 101.335C-10.5457 86.365 2.15815 16.6084 2.30369 15.9014C2.3966 15.4209 2.65606 14.9885 3.03638 14.6805C3.4167 14.3724 3.89351 14.2084 4.38287 14.2173C30.6771 15.1041 45.23 2.46983 45.6067 2.14279C45.6098 2.14011 45.6119 2.13825 45.6131 2.13724C45.9951 1.79243 46.4915 1.60156 47.0061 1.60156C47.5208 1.60156 48.0171 1.79243 48.3992 2.13724C48.4003 2.13818 48.4022 2.13986 48.405 2.14225ZM6.06701 18.4172C4.38287 29.1043 -1.50122 84.0363 47.0061 97.1559C94.9105 84.1818 89.4215 28.9171 87.9245 18.4172C65.2198 18.6667 51.2893 9.60151 47.0061 6.35798C42.723 9.60151 28.938 18.646 6.06701 18.4172ZM48.0454 11.7029C58.5554 18.0831 70.5227 21.6689 82.8094 22.1197C83.2943 22.1558 83.7512 22.3607 84.1007 22.6987C84.4501 23.0368 84.6701 23.4867 84.7222 23.9701C86.3024 40.8947 85.8866 81.5012 47.5464 93.0198C47.1521 93.1309 46.7348 93.1309 46.3405 93.0198C8.00035 81.5012 7.58451 40.8947 9.16469 23.9701C9.21415 23.4729 9.441 23.0102 9.80372 22.6665C10.1664 22.3229 10.6408 22.1214 11.1399 22.0989C23.4034 21.6439 35.3478 18.0656 45.8415 11.7029C46.1719 11.4964 46.5538 11.3869 46.9435 11.3869C47.3331 11.3869 47.715 11.4964 48.0454 11.7029ZM13.2191 26.1533C11.9508 42.8491 13.4478 78.4655 47.0058 88.8615C80.5639 78.3824 82.0609 42.8491 80.7926 26.1533C68.882 25.4349 57.3078 21.9234 47.0058 15.9029C36.6998 21.9141 25.1278 25.4249 13.2191 26.1533Z"/>
</mask>
<path fill-rule="evenodd" clip-rule="evenodd" d="M48.405 2.14225C48.7666 2.45561 63.3616 15.1046 89.6294 14.2173C90.1188 14.2084 90.5956 14.3724 90.9759 14.6805C91.3562 14.9885 91.6157 15.4209 91.7086 15.9014C91.8749 16.6084 104.579 86.365 47.5467 101.335C47.2052 101.418 46.8487 101.418 46.5071 101.335C-10.5457 86.365 2.15815 16.6084 2.30369 15.9014C2.3966 15.4209 2.65606 14.9885 3.03638 14.6805C3.4167 14.3724 3.89351 14.2084 4.38287 14.2173C30.6771 15.1041 45.23 2.46983 45.6067 2.14279C45.6098 2.14011 45.6119 2.13825 45.6131 2.13724C45.9951 1.79243 46.4915 1.60156 47.0061 1.60156C47.5208 1.60156 48.0171 1.79243 48.3992 2.13724C48.4003 2.13818 48.4022 2.13986 48.405 2.14225ZM6.06701 18.4172C4.38287 29.1043 -1.50122 84.0363 47.0061 97.1559C94.9105 84.1818 89.4215 28.9171 87.9245 18.4172C65.2198 18.6667 51.2893 9.60151 47.0061 6.35798C42.723 9.60151 28.938 18.646 6.06701 18.4172ZM48.0454 11.7029C58.5554 18.0831 70.5227 21.6689 82.8094 22.1197C83.2943 22.1558 83.7512 22.3607 84.1007 22.6987C84.4501 23.0368 84.6701 23.4867 84.7222 23.9701C86.3024 40.8947 85.8866 81.5012 47.5464 93.0198C47.1521 93.1309 46.7348 93.1309 46.3405 93.0198C8.00035 81.5012 7.58451 40.8947 9.16469 23.9701C9.21415 23.4729 9.441 23.0102 9.80372 22.6665C10.1664 22.3229 10.6408 22.1214 11.1399 22.0989C23.4034 21.6439 35.3478 18.0656 45.8415 11.7029C46.1719 11.4964 46.5538 11.3869 46.9435 11.3869C47.3331 11.3869 47.715 11.4964 48.0454 11.7029ZM13.2191 26.1533C11.9508 42.8491 13.4478 78.4655 47.0058 88.8615C80.5639 78.3824 82.0609 42.8491 80.7926 26.1533C68.882 25.4349 57.3078 21.9234 47.0058 15.9029C36.6998 21.9141 25.1278 25.4249 13.2191 26.1533Z" fill="white"/>
<path d="M89.6294 14.2173L89.6112 13.2175L89.6034 13.2176L89.5956 13.2179L89.6294 14.2173ZM48.405 2.14225L47.7498 2.89772L47.75 2.89794L48.405 2.14225ZM91.7086 15.9014L90.7268 16.0913L90.7306 16.111L90.7352 16.1305L91.7086 15.9014ZM47.5467 101.335L47.7826 102.307L47.7916 102.305L47.8006 102.302L47.5467 101.335ZM46.5071 101.335L46.2533 102.302L46.2623 102.305L46.2713 102.307L46.5071 101.335ZM2.30369 15.9014L3.28322 16.1031L3.2855 16.0913L2.30369 15.9014ZM3.03638 14.6805L3.6658 15.4575H3.6658L3.03638 14.6805ZM4.38287 14.2173L4.41658 13.2179L4.40882 13.2176L4.40105 13.2175L4.38287 14.2173ZM45.6067 2.14279L44.9512 1.38754L44.9511 1.38766L45.6067 2.14279ZM45.6131 2.13724L46.2638 2.89659L46.2735 2.88822L46.2831 2.8796L45.6131 2.13724ZM48.3992 2.13724L47.7292 2.8796L47.7389 2.8884L47.7489 2.89694L48.3992 2.13724ZM47.0061 97.1559L46.745 98.1212L47.0063 98.1919L47.2676 98.1211L47.0061 97.1559ZM6.06701 18.4172L6.07701 17.4173L5.21361 17.4087L5.0792 18.2616L6.06701 18.4172ZM87.9245 18.4172L88.9145 18.2761L88.7906 17.4077L87.9135 17.4173L87.9245 18.4172ZM47.0061 6.35798L47.6098 5.56078L47.0061 5.1036L46.4024 5.56078L47.0061 6.35798ZM82.8094 22.1197L82.8836 21.1224L82.8649 21.121L82.846 21.1203L82.8094 22.1197ZM48.0454 11.7029L47.5154 12.551L47.5265 12.5578L48.0454 11.7029ZM84.1007 22.6987L84.796 21.98L84.796 21.98L84.1007 22.6987ZM84.7222 23.9701L85.7179 23.8772L85.7172 23.87L85.7165 23.8629L84.7222 23.9701ZM47.5464 93.0198L47.8175 93.9824L47.8258 93.98L47.8342 93.9775L47.5464 93.0198ZM46.3405 93.0198L46.0528 93.9775L46.0611 93.98L46.0695 93.9824L46.3405 93.0198ZM9.16469 23.9701L8.16959 23.8711L8.16902 23.8772L9.16469 23.9701ZM11.1399 22.0989L11.1028 21.0995L11.0948 21.0999L11.1399 22.0989ZM45.8415 11.7029L46.36 12.5581L46.3715 12.5509L45.8415 11.7029ZM47.0058 88.8615L46.7099 89.8167L47.007 89.9087L47.3039 89.816L47.0058 88.8615ZM13.2191 26.1533L13.158 25.1551L12.288 25.2084L12.222 26.0775L13.2191 26.1533ZM80.7926 26.1533L81.7897 26.0775L81.7236 25.2076L80.8528 25.1551L80.7926 26.1533ZM47.0058 15.9029L47.5104 15.0395L47.0063 14.7449L46.502 15.0391L47.0058 15.9029ZM89.5956 13.2179C63.679 14.0933 49.322 1.61374 49.0599 1.38655L47.75 2.89794C48.2111 3.29748 63.0442 16.1159 89.6632 15.2167L89.5956 13.2179ZM91.6053 13.9034C91.0421 13.4472 90.336 13.2043 89.6112 13.2175L89.6476 15.2171C89.9016 15.2125 90.1491 15.2976 90.3465 15.4575L91.6053 13.9034ZM92.6904 15.7116C92.5528 14.9999 92.1686 14.3596 91.6053 13.9034L90.3465 15.4575C90.5439 15.6174 90.6786 15.8419 90.7268 16.0913L92.6904 15.7116ZM47.8006 102.302C76.8111 94.6875 88.0789 73.0936 92.0571 53.4682C96.0259 33.889 92.7877 16.1215 92.682 15.6724L90.7352 16.1305C90.7327 16.1199 90.7451 16.1794 90.7738 16.3409C90.7999 16.4879 90.8358 16.699 90.8791 16.9704C90.9657 17.5132 91.0812 18.2952 91.2058 19.2861C91.4549 21.2681 91.7395 24.0833 91.8997 27.4905C92.2204 34.3094 92.0419 43.476 90.097 53.0709C86.2106 72.2431 75.3143 93.0126 47.2928 100.368L47.8006 102.302ZM46.2713 102.307C46.7678 102.427 47.286 102.427 47.7826 102.307L47.3109 100.363C47.1243 100.409 46.9296 100.409 46.743 100.363L46.2713 102.307ZM1.32423 15.6998C1.23801 16.1186 -1.99914 33.884 1.97601 53.4685C5.95947 73.0939 17.2325 94.6876 46.2533 102.302L46.7609 100.368C18.7289 93.0125 7.8275 72.2428 3.93605 53.0706C1.98853 43.4757 1.80745 34.3091 2.12494 27.49C2.28358 24.0827 2.56641 21.2674 2.81353 19.2851C2.93708 18.2941 3.05163 17.5118 3.13716 16.9684C3.17993 16.6967 3.2154 16.485 3.24106 16.3371C3.25389 16.2631 3.26421 16.2054 3.2717 16.1644C3.27983 16.1199 3.28337 16.102 3.28314 16.1031L1.32423 15.6998ZM2.40696 13.9034C1.84371 14.3596 1.45947 14.9999 1.32187 15.7116L3.2855 16.0913C3.33373 15.8418 3.4684 15.6174 3.6658 15.4575L2.40696 13.9034ZM4.40105 13.2175C3.67634 13.2043 2.9702 13.4472 2.40696 13.9034L3.6658 15.4575C3.86321 15.2976 4.11069 15.2125 4.36469 15.2171L4.40105 13.2175ZM44.9511 1.38766C44.6745 1.62781 30.3598 14.0928 4.41658 13.2179L4.34917 15.2167C30.9944 16.1154 45.7855 3.31185 46.2623 2.89792L44.9511 1.38766ZM44.9624 1.3779C44.9607 1.37938 44.9592 1.38066 44.9583 1.38146C44.9573 1.38232 44.9563 1.38313 44.9556 1.38377C44.9542 1.38494 44.9525 1.38646 44.9512 1.38754L46.2621 2.89803C46.264 2.89643 46.2648 2.89568 46.2656 2.895C46.2659 2.89472 46.266 2.89471 46.2658 2.89486C46.2657 2.89494 46.2649 2.89561 46.2638 2.89659L44.9624 1.3779ZM47.0061 0.601562C46.244 0.601562 45.5089 0.88423 44.9431 1.39488L46.2831 2.8796C46.4814 2.70063 46.739 2.60156 47.0061 2.60156V0.601562ZM49.0692 1.39488C48.5034 0.884227 47.7683 0.601562 47.0061 0.601562V2.60156C47.2733 2.60156 47.5309 2.70063 47.7292 2.8796L49.0692 1.39488ZM49.0602 1.38677C49.0584 1.38525 49.0536 1.38109 49.0495 1.37754L47.7489 2.89694C47.7474 2.89562 47.7465 2.89486 47.7472 2.89549C47.7477 2.89589 47.7485 2.89656 47.7498 2.89772L49.0602 1.38677ZM47.2672 96.1906C23.4501 89.7488 12.9997 73.0844 8.68205 56.6207C4.35158 40.1079 6.22118 23.8629 7.05482 18.5729L5.0792 18.2616C4.2287 23.6586 2.31418 40.2231 6.74747 57.128C11.1936 74.0819 22.0548 91.4434 46.745 98.1212L47.2672 96.1906ZM86.9345 18.5584C87.6761 23.76 89.402 40.0446 85.024 56.6031C80.6578 73.1176 70.2548 89.8234 46.7447 96.1907L47.2676 98.1211C71.6618 91.5144 82.4666 74.1008 86.9576 57.1144C91.437 40.1721 89.6699 23.5744 88.9145 18.2761L86.9345 18.5584ZM46.4024 7.15519C50.8033 10.4879 64.9449 19.6698 87.9355 19.4172L87.9135 17.4173C65.4946 17.6637 51.7752 8.71516 47.6098 5.56078L46.4024 7.15519ZM6.05701 19.4172C29.2134 19.6488 43.2092 10.4877 47.6098 7.15519L46.4024 5.56078C42.2368 8.7153 28.6626 17.6432 6.07701 17.4173L6.05701 19.4172ZM82.846 21.1203C70.7298 20.6759 58.9286 17.1397 48.5644 10.8481L47.5265 12.5578C58.1823 19.0264 70.3156 22.662 82.7727 23.119L82.846 21.1203ZM84.796 21.98C84.2784 21.4793 83.6017 21.1759 82.8836 21.1224L82.7352 23.1169C82.9868 23.1356 83.224 23.242 83.4054 23.4175L84.796 21.98ZM85.7165 23.8629C85.6392 23.1469 85.3135 22.4807 84.796 21.98L83.4054 23.4175C83.5868 23.5929 83.7009 23.8265 83.728 24.0774L85.7165 23.8629ZM47.8342 93.9775C67.3745 88.107 77.2697 74.7919 82.0504 60.8465C86.816 46.9452 86.5136 32.3991 85.7179 23.8772L83.7266 24.0631C84.5111 32.4658 84.7909 46.6851 80.1585 60.1979C75.5413 73.6665 66.0585 86.414 47.2587 92.0621L47.8342 93.9775ZM46.0695 93.9824C46.641 94.1433 47.2459 94.1433 47.8175 93.9824L47.2754 92.0573C47.0583 92.1184 46.8286 92.1184 46.6115 92.0573L46.0695 93.9824ZM8.16902 23.8772C7.37337 32.3991 7.07097 46.9452 11.8365 60.8465C16.6172 74.7919 26.5124 88.107 46.0528 93.9775L46.6282 92.0621C27.8284 86.414 18.3456 73.6665 13.7284 60.1979C9.09607 46.6851 9.37584 32.4658 10.1604 24.0631L8.16902 23.8772ZM9.11597 21.9406C8.5788 22.4495 8.24285 23.1348 8.1696 23.8712L10.1598 24.0691C10.1855 23.8111 10.3032 23.5709 10.4915 23.3925L9.11597 21.9406ZM11.0948 21.0999C10.3556 21.1332 9.65315 21.4317 9.11597 21.9406L10.4915 23.3925C10.6797 23.2141 10.9259 23.1095 11.185 23.0979L11.0948 21.0999ZM45.323 10.8479C34.9749 17.1222 23.1962 20.6509 11.1028 21.0996L11.177 23.0982C23.6106 22.6369 35.7207 19.009 46.36 12.558L45.323 10.8479ZM46.9435 10.3869C46.3664 10.3869 45.8009 10.5491 45.3115 10.855L46.3715 12.5509C46.543 12.4437 46.7412 12.3869 46.9435 12.3869V10.3869ZM48.5754 10.855C48.086 10.5491 47.5206 10.3869 46.9435 10.3869V12.3869C47.1457 12.3869 47.3439 12.4437 47.5154 12.5509L48.5754 10.855ZM47.3018 87.9062C30.8834 82.82 22.3215 71.5921 17.9938 59.5321C13.6517 47.4319 13.5868 34.515 14.2162 26.229L12.222 26.0775C11.5831 34.4874 11.6326 47.7267 16.1114 60.2076C20.6046 72.7288 29.5702 84.507 46.7099 89.8167L47.3018 87.9062ZM79.7954 26.229C80.4249 34.515 80.36 47.4109 76.0179 59.5006C71.6903 71.5501 63.128 82.7794 46.7078 87.9069L47.3039 89.816C64.4417 84.4644 73.4069 72.6876 77.9002 60.1767C82.3791 47.706 82.4286 34.4874 81.7897 26.0775L79.7954 26.229ZM46.5013 16.7663C56.9387 22.866 68.6652 26.4236 80.7324 27.1515L80.8528 25.1551C69.0989 24.4461 57.6769 20.9809 47.5104 15.0395L46.5013 16.7663ZM13.2802 27.1514C25.3449 26.4135 37.0686 22.8567 47.5097 16.7667L46.502 15.0391C36.3311 20.9715 24.9107 24.4363 13.158 25.1551L13.2802 27.1514Z" fill="white" mask="url(#path-1-outside-1_496_5668)"/>
<path d="M58.7085 40.1218L58.7084 40.1217L58.7002 40.1299L41.9405 56.9603L35.853 50.7514L35.8476 50.7459L35.842 50.7405C35.3213 50.2414 34.629 49.9625 33.9086 49.9625C33.1881 49.9625 32.4958 50.2414 31.9751 50.7405L31.9751 50.7404L31.9681 50.7474C31.7057 51.0091 31.4976 51.3203 31.3556 51.6629C31.2137 52.0056 31.1406 52.373 31.1406 52.744C31.1406 53.115 31.2137 53.4825 31.3556 53.8251C31.4975 54.1674 31.7053 54.4783 31.9673 54.7398C31.9676 54.7401 31.9678 54.7403 31.9681 54.7406L40.0188 62.8362L40.0203 62.8377C40.2818 63.0986 40.5922 63.3051 40.9336 63.4453C41.2741 63.5852 41.6388 63.6563 42.0068 63.6546C42.3748 63.6563 42.7395 63.5852 43.08 63.4453C43.4214 63.3051 43.7318 63.0986 43.9933 62.8377L43.9952 62.8358L62.5843 44.0968L62.5849 44.0962C63.1062 43.5688 63.3983 42.8561 63.3983 42.1137C63.3983 41.3713 63.1062 40.6585 62.5849 40.1312L62.585 40.1311L62.5753 40.1218C62.0547 39.6226 61.3624 39.3438 60.6419 39.3438C59.9214 39.3438 59.2291 39.6226 58.7085 40.1218Z" fill="white" stroke="white"/>

</svg>