<svg width="30" height="39" viewBox="0 0 30 39" fill="none" xmlns="http://www.w3.org/2000/svg">
<path d="M14.965 5.93203C9.94077 5.93203 5.85331 9.91014 5.85331 14.7999C5.85331 15.2146 6.05752 17.5857 10.0893 23.5579C11.7134 25.9635 13.538 28.3301 15.0925 30.2653C16.1614 28.9214 17.357 27.3524 18.5292 25.6877C23.921 18.0309 24.0766 15.108 24.0766 14.7999C24.0766 9.91014 19.9891 5.93203 14.965 5.93203ZM14.965 0.980469C22.807 0.980469 29.1643 7.16764 29.1643 14.7999C29.1643 22.3478 15.2039 38.1172 14.9677 38.1172C14.965 38.1172 14.9641 38.1153 14.965 38.1113C15.0396 37.7537 0.765625 22.4322 0.765625 14.7999C0.765625 7.16764 7.12288 0.980469 14.965 0.980469Z" fill="#FFCA08"/>
</svg>
