<svg width="31" height="30" viewBox="0 0 31 30" fill="none" xmlns="http://www.w3.org/2000/svg">
<path d="M15.4585 0.34375C12.5494 0.34375 9.7057 1.20639 7.2869 2.82258C4.8681 4.43877 2.98288 6.73592 1.86962 9.42355C0.756373 12.1112 0.465096 15.0686 1.03263 17.9217C1.60016 20.7749 3.001 23.3957 5.05802 25.4527C7.11505 27.5097 9.73585 28.9106 12.589 29.4781C15.4422 30.0457 18.3996 29.7544 21.0872 28.6411C23.7748 27.5279 26.072 25.6426 27.6882 23.2238C29.3044 20.805 30.167 17.9613 30.167 15.0522C30.167 11.1513 28.6174 7.41015 25.859 4.65177C23.1006 1.89339 19.3594 0.34375 15.4585 0.34375ZM20.7115 16.1029H15.4585C15.1799 16.1029 14.9126 15.9922 14.7156 15.7951C14.5186 15.5981 14.4079 15.3309 14.4079 15.0522V5.59678C14.4079 5.31815 14.5186 5.05092 14.7156 4.85389C14.9126 4.65687 15.1799 4.54618 15.4585 4.54618C15.7371 4.54618 16.0044 4.65687 16.2014 4.85389C16.3984 5.05092 16.5091 5.31815 16.5091 5.59678V14.0016H20.7115C20.9902 14.0016 21.2574 14.1123 21.4544 14.3094C21.6515 14.5064 21.7621 14.7736 21.7621 15.0522C21.7621 15.3309 21.6515 15.5981 21.4544 15.7951C21.2574 15.9922 20.9902 16.1029 20.7115 16.1029Z" fill="#FFCA08"/>
</svg>
