<svg width="33" height="29" viewBox="0 0 33 29" fill="none" xmlns="http://www.w3.org/2000/svg">
<path d="M13.6737 6.65447C13.2585 2.31013 8.27608 0.178495 8.06522 0.0914898C7.8681 0.00720077 7.64719 -0.0197295 7.43263 0.0143714C1.68066 0.882449 0.81547 3.92764 0.780689 4.05419C0.733367 4.23055 0.740894 4.4154 0.802427 4.58809C7.66306 23.9508 21.9213 27.5397 26.608 28.7202C26.9689 28.8112 27.2667 28.8844 27.4928 28.9516C27.7508 29.0283 28.0311 29.0134 28.2776 28.9101C28.421 28.8507 31.8079 27.3993 32.6361 22.6654C32.6728 22.4588 32.6363 22.2469 32.5318 22.0604C32.4578 21.9299 30.6862 18.8629 25.7733 17.7793C25.6066 17.7405 25.4321 17.7392 25.2647 17.7753C25.0974 17.8115 24.9422 17.8841 24.8125 17.9869C23.2625 19.1912 21.1213 20.4745 20.1974 20.607C14.0041 17.8525 10.5456 12.5669 10.4151 11.5643C10.3391 11.0008 11.7586 9.02141 13.3911 7.41181C13.4937 7.31051 13.5719 7.19079 13.6206 7.06035C13.6692 6.92992 13.6873 6.79166 13.6737 6.65447Z" fill="#FFCA08"/>
</svg> 


