<svg width="34" height="25" viewBox="0 0 34 25" fill="none" xmlns="http://www.w3.org/2000/svg">
<path d="M0.75 3.24269V2.4151C0.75 1.88025 0.96247 1.3673 1.34067 0.989106C1.71887 0.610907 2.23181 0.398438 2.76667 0.398438L31 0.398438C31.5348 0.398438 32.0478 0.610907 32.426 0.989106C32.8042 1.3673 33.0167 1.88025 33.0167 2.4151V3.24269L16.8833 13.326L0.75 3.24269ZM17.4177 15.3704C17.2575 15.4705 17.0723 15.5235 16.8833 15.5235C16.6944 15.5235 16.5092 15.4705 16.3489 15.3704L0.75 5.62085V22.5818C0.75 23.1166 0.96247 23.6296 1.34067 24.0078C1.71887 24.386 2.23181 24.5984 2.76667 24.5984H31C31.5348 24.5984 32.0478 24.386 32.426 24.0078C32.8042 23.6296 33.0167 23.1166 33.0167 22.5818V5.62085L17.4177 15.3704Z" fill="#FFCA08"/>
</svg>
