<svg width="23" height="24" viewBox="0 0 23 24" fill="none" xmlns="http://www.w3.org/2000/svg">
<path d="M2.16406 10.5C1.33564 10.5 0.664063 11.1716 0.664062 12C0.664062 12.8284 1.33564 13.5 2.16406 13.5L2.16406 10.5ZM22.5563 13.0607C23.1421 12.4749 23.1421 11.5251 22.5563 10.9393L13.0104 1.3934C12.4246 0.807612 11.4749 0.807612 10.8891 1.3934C10.3033 1.97919 10.3033 2.92893 10.8891 3.51472L19.3744 12L10.8891 20.4853C10.3033 21.0711 10.3033 22.0208 10.8891 22.6066C11.4749 23.1924 12.4246 23.1924 13.0104 22.6066L22.5563 13.0607ZM2.16406 13.5L21.4957 13.5L21.4957 10.5L2.16406 10.5L2.16406 13.5Z" fill="white"/>
</svg>
