<svg width="94" height="100" viewBox="0 0 94 100" fill="none" xmlns="http://www.w3.org/2000/svg">
<path fill-rule="evenodd" clip-rule="evenodd" d="M48.3894 0.540683C48.7509 0.854044 63.346 13.503 89.6138 12.6157C90.1031 12.6068 90.5799 12.7709 90.9603 13.0789C91.3406 13.387 91.6001 13.8193 91.693 14.2999C91.8593 15.0068 104.563 84.7634 47.5311 99.7335C47.1895 99.8164 46.8331 99.8164 46.4915 99.7335C-10.5613 84.7634 2.14252 15.0068 2.28806 14.2999C2.38098 13.8193 2.64043 13.387 3.02076 13.0789C3.40108 12.7709 3.87789 12.6068 4.36725 12.6157C30.6615 13.5025 45.2143 0.868267 45.5911 0.541223C45.5941 0.538545 45.5963 0.536692 45.5975 0.535679C45.9795 0.190867 46.4759 0 46.9905 0C47.5052 0 48.0015 0.190867 48.3836 0.535679C48.3847 0.536622 48.3866 0.538294 48.3894 0.540683ZM6.05139 16.8157C4.36725 27.5027 -1.51684 82.4347 46.9905 95.5544C94.8949 82.5803 89.4059 27.3156 87.9088 16.8157C65.2042 17.0652 51.2736 7.99995 46.9905 4.75642C42.7074 7.99995 28.9224 17.0444 6.05139 16.8157ZM48.0263 10.1012C58.5363 16.4813 70.5036 20.0672 82.7903 20.5179C83.2752 20.554 83.7321 20.7589 84.0816 21.097C84.431 21.4351 84.651 21.8849 84.7031 22.3684C86.2833 39.2929 85.8675 79.8994 47.5273 91.4181C47.133 91.5291 46.7157 91.5291 46.3214 91.4181C7.98123 79.8994 7.5654 39.2929 9.14558 22.3684C9.19503 21.8712 9.42188 21.4084 9.7846 21.0648C10.1473 20.7212 10.6217 20.5196 11.1208 20.4971C23.3843 20.0421 35.3287 16.4638 45.8224 10.1012C46.1528 9.89467 46.5347 9.78516 46.9243 9.78516C47.314 9.78516 47.6959 9.89467 48.0263 10.1012ZM13.2 24.5515C11.9317 41.2474 13.4287 76.8638 46.9867 87.2597C80.5447 76.7806 82.0418 41.2474 80.7735 24.5515C68.8629 23.8331 57.2887 20.3217 46.9867 14.3011C36.6807 20.3124 25.1087 23.8231 13.2 24.5515Z" fill="#FFCA08"/>
<path d="M59.0388 38.8811L41.9222 56.0701L35.4804 49.4999C35.0525 49.0897 34.4841 48.8609 33.893 48.8609C33.3018 48.8609 32.7334 49.0897 32.3055 49.4999C32.0899 49.715 31.9187 49.9708 31.8019 50.2528C31.6851 50.5347 31.625 50.837 31.625 51.1424C31.625 51.4479 31.6851 51.7502 31.8019 52.0322C31.9187 52.3141 32.0899 52.5699 32.3055 52.785L40.3577 60.8821C40.5727 61.0965 40.8276 61.2661 41.108 61.3813C41.3883 61.4964 41.6884 61.5548 41.9912 61.553C42.294 61.5548 42.5941 61.4964 42.8744 61.3813C43.1547 61.2661 43.4097 61.0965 43.6246 60.8821L62.2137 42.1431C62.6422 41.7097 62.8827 41.1233 62.8827 40.5121C62.8827 39.9009 62.6422 39.3146 62.2137 38.8811C61.7859 38.471 61.2174 38.2422 60.6263 38.2422C60.0352 38.2422 59.4667 38.471 59.0388 38.8811Z" fill="#FFCA08"/>
</svg>
