<svg width="134" height="100" viewBox="0 0 134 100" fill="none" xmlns="http://www.w3.org/2000/svg">
<path d="M132.121 70.8115L89.3459 46.083C88.6375 45.6712 87.7692 45.6712 87.0609 46.083C86.3525 46.4947 85.9184 47.2496 85.9184 48.0731V59.6939H28.4283C27.1716 59.6939 26.1433 60.7233 26.1433 61.9815V83.599C26.1433 84.8571 27.1716 85.8865 28.4283 85.8865H85.9413V97.5074C85.9413 98.3309 86.3754 99.0858 87.0837 99.4975C87.4265 99.7034 87.8378 99.7949 88.2262 99.7949C88.6147 99.7949 89.026 99.7034 89.3687 99.4975L132.121 74.769C132.829 74.3572 133.263 73.6023 133.263 72.7788C133.263 71.9553 132.829 71.2004 132.121 70.8115ZM90.4884 93.5499V83.599C90.4884 82.3408 89.4601 81.3114 88.2034 81.3114H30.7133V64.2691H88.2262C89.483 64.2691 90.5112 63.2397 90.5112 61.9815V52.0306L126.408 72.7788L90.4884 93.5499ZM45.7942 54.0208C46.1826 54.0208 46.5939 53.9293 46.9367 53.7234C47.645 53.3116 48.0791 52.5568 48.0791 51.7332V40.1124H105.592C106.849 40.1124 107.877 39.083 107.877 37.8248V16.2074C107.877 14.9492 106.849 13.9198 105.592 13.9198H48.0791V2.299C48.0791 1.47548 47.645 0.720582 46.9367 0.308821C46.2283 -0.10294 45.36 -0.10294 44.6517 0.308821L1.87686 25.0374C1.16852 25.4491 0.734375 26.204 0.734375 27.0276C0.734375 27.8511 1.16852 28.606 1.87686 29.0177L44.6517 53.7463C44.9944 53.9293 45.3829 54.0208 45.7942 54.0208ZM43.5092 37.8248V47.7757L7.58931 27.0276L43.5092 6.27936V16.2303C43.5092 17.4884 44.5374 18.5178 45.7942 18.5178H103.307V35.5602H45.7942C44.5146 35.5373 43.5092 36.5667 43.5092 37.8248Z" fill="#FFCA08"/>
</svg>
