<svg width="174" height="100" viewBox="0 0 174 100" fill="none" xmlns="http://www.w3.org/2000/svg">
<path fill-rule="evenodd" clip-rule="evenodd" d="M24.8476 66.8974C24.3942 66.8975 23.9473 66.7907 23.5435 66.5857L1.84128 55.4628C1.17217 55.1201 0.666582 54.5279 0.435026 53.8154C0.203471 53.103 0.264777 52.3283 0.605547 51.6607L26.1004 1.55369C26.2696 1.22097 26.5032 0.924782 26.7877 0.682095C27.0723 0.439407 27.4022 0.254999 27.7585 0.139448C28.1148 0.0238972 28.4906 -0.0205232 28.8642 0.00873308C29.2378 0.0379894 29.6019 0.140346 29.9357 0.309935L50.5816 10.7926C51.2444 11.1282 51.749 11.7086 51.9873 12.4095C52.2257 13.1105 52.179 13.8765 51.8571 14.5437L49.79 18.8348L54.2964 21.3589C56.9643 19.7496 62.7386 16.2847 66.4344 14.208C71.7581 11.2082 75.6918 11.2192 79.8942 14.4221C85.8507 10.6328 90.976 8.63132 96.5986 11.15C100.118 12.7281 112.609 17.5416 116.157 18.9072L125.696 15.7954L124.187 12.0704C124.044 11.7166 123.973 11.3376 123.981 10.956C123.988 10.5745 124.072 10.1984 124.229 9.85017C124.386 9.50198 124.612 9.1889 124.894 8.92973C125.175 8.67057 125.506 8.47065 125.867 8.34198L148.834 0.165524C149.529 -0.081759 150.293 -0.0510075 150.965 0.251298C151.637 0.553604 152.166 1.10385 152.438 1.78608L173.509 54.4089C173.646 54.7568 173.714 55.1284 173.706 55.5023C173.699 55.8762 173.618 56.245 173.467 56.5874C173.315 56.9298 173.098 57.239 172.826 57.4973C172.554 57.7555 172.233 57.9576 171.883 58.092L149.338 66.6991C149.013 66.8268 148.667 66.8941 148.318 66.8974C147.751 66.8972 147.196 66.7282 146.726 66.4122C146.256 66.0962 145.891 65.6476 145.679 65.1239L144.005 60.9929L139.538 62.9668C139.553 63.0012 139.567 63.0358 139.582 63.0704C140.089 64.2736 140.344 65.5666 140.334 66.8711C140.323 68.1756 140.046 69.4644 139.52 70.6592C138.994 71.8541 138.229 72.9301 137.272 73.8221C135.082 75.7997 132.205 76.8549 129.249 76.7657C129.136 76.7686 129.024 76.7697 128.912 76.7691C128.38 78.1471 127.62 79.4338 126.658 80.5734C125.098 82.4191 123.066 83.8102 120.776 84.5989C119.378 85.0927 117.906 85.3494 116.423 85.3582C115.881 85.3744 115.342 85.345 114.812 85.2719C113.913 86.9364 112.66 88.3994 111.128 89.5522C108.887 91.2382 106.164 92.1713 103.358 92.2197C103.108 93.0576 102.748 93.864 102.284 94.6172C101.248 96.3009 99.7368 97.6446 97.9393 98.4815C96.1918 99.3422 94.2686 99.7911 92.3187 99.7933C89.9911 99.8426 87.7147 99.1089 85.8582 97.7109C83.8652 96.1232 81.8649 94.5444 79.8576 92.9745C78.2658 95.0517 76.1958 96.7516 73.792 97.914C72.9027 98.2881 71.9471 98.4807 70.9817 98.4806C70.0563 98.4773 69.1404 98.2945 68.2853 97.9423C65.9635 96.8087 64.0495 94.9903 62.8042 92.735C60.7835 93.1251 58.6895 92.812 56.8733 91.8482C55.3498 90.8546 54.0401 89.5694 53.0204 88.0675C52.7395 87.6537 52.4822 87.2258 52.2492 86.7857C51.2853 87.1489 50.2617 87.36 49.2149 87.4034C48.5403 87.4053 47.8689 87.3099 47.2218 87.1201C43.5401 86.0187 41.5489 82.1682 40.7069 80.0406C37.5957 78.6939 30.2188 74.7469 30.2188 67.6158C30.2184 67.3187 30.2646 67.0234 30.3554 66.7404C30.7434 65.678 31.1853 64.6372 31.6792 63.622L29.072 61.8417L27.4158 65.2796C27.2506 65.6208 27.0187 65.9258 26.7337 66.1768C26.4487 66.4278 26.1163 66.6198 25.7558 66.7415C25.4633 66.8409 25.1567 66.8935 24.8476 66.8974ZM25.3081 56.5543L23.5463 60.2111L6.96359 51.7117L29.8901 6.66468L45.5219 14.5975L43.6069 18.5722C43.5995 18.585 43.5921 18.5978 43.5848 18.6107C43.5162 18.7319 43.4569 18.8578 43.4071 18.9871L25.4473 56.2653C25.3953 56.3593 25.3489 56.4558 25.3081 56.5543ZM31.564 56.6688L34.6033 58.7442C35.9033 57.2278 37.683 56.1949 39.6513 55.8162C41.6469 55.4323 43.7145 55.7443 45.506 56.6997C47.1924 57.4433 48.5373 58.789 49.2753 60.4711C49.6286 61.2764 49.8305 62.1307 49.8793 62.993C51.1775 61.8843 52.7581 61.1303 54.4654 60.8252C56.8314 60.4025 59.2709 60.8723 61.3074 62.1431C62.6879 63.0962 63.8792 64.6247 64.2647 66.6009C65.0437 66.5574 65.8275 66.6087 66.5985 66.7556C67.9987 67.0222 69.3211 67.5971 70.4692 68.438C71.7414 69.2759 72.7631 70.4398 73.4265 71.8069C74.09 73.1741 74.3706 74.6939 74.239 76.2064C75.5933 76.2645 76.9194 76.6109 78.1277 77.2223C79.336 77.8337 80.3985 78.6959 81.2434 79.7507C82.0641 81.0268 82.5879 82.4692 82.7766 83.9726C82.9394 85.2704 82.849 86.5854 82.5123 87.8456C83.8233 88.8691 86.4555 90.9307 89.4173 93.2884C90.3182 93.8219 91.3428 94.1136 92.3908 94.1349C93.4389 94.1563 94.4747 93.9066 95.3967 93.4102C96.221 93.0575 96.9186 92.4645 97.3974 91.7094C97.5867 91.4109 97.7383 91.0927 97.8502 90.7618C97.4805 90.5206 97.1271 90.2513 96.7933 89.955L86.6797 79.8917L90.7086 75.8828L100.822 85.9461C101.448 86.2958 102.141 86.5108 102.855 86.5772C103.57 86.6436 104.291 86.5599 104.971 86.3315C106.277 86.0124 107.473 85.3499 108.434 84.4134C108.909 83.95 109.318 83.428 109.652 82.8621C105.638 79.2563 96.3521 70.0225 95.9478 69.6201C95.4291 69.0857 95.1421 68.3701 95.1486 67.6272C95.1551 66.8844 95.4545 66.1738 95.9825 65.6485C96.5104 65.1232 97.2245 64.8253 97.9711 64.8188C98.7176 64.8124 99.4369 65.0979 99.9739 65.614C100.074 65.7132 110.073 75.6575 113.758 78.9298C113.871 78.9986 113.987 79.0632 114.105 79.1235C114.271 79.1812 114.431 79.2539 114.583 79.3406C115.122 79.5557 115.694 79.6859 116.278 79.7246C117.171 79.7838 118.064 79.6278 118.883 79.2698C120.22 78.816 121.406 78.0056 122.312 76.9269C122.745 76.411 123.106 75.8433 123.388 75.2392L123.349 75.216C120.73 73.4764 109.204 62.2288 106.92 59.9935C106.417 59.4603 106.14 58.754 106.148 58.0224C106.156 57.2909 106.448 56.5908 106.964 56.0688C107.479 55.5467 108.177 55.2432 108.912 55.2217C109.647 55.2002 110.361 55.4624 110.906 55.9534C116.032 60.9879 124.824 69.3882 126.501 70.5016C127.582 70.9986 128.778 71.1966 129.962 71.075C131.146 70.9534 132.276 70.5165 133.232 69.8103C133.68 69.424 134.037 68.9445 134.278 68.4059C134.519 67.8672 134.638 67.2825 134.628 66.6929C134.617 66.1033 134.476 65.5233 134.215 64.9938C134.028 64.6144 133.783 64.2676 133.489 63.9655L133.468 63.9482C133.362 63.8625 133.262 63.7698 133.17 63.671C133.153 63.6566 133.136 63.6424 133.118 63.6284C130.208 60.3703 118.119 48.7969 115.465 46.2584C106.205 42.8811 97.2258 38.787 88.6091 34.0135L85.6137 35.9627C84.9412 39.069 83.147 41.8219 80.5711 43.7C79.667 44.4087 78.6173 44.9111 77.4965 45.1715C76.3757 45.432 75.211 45.4442 74.0849 45.2073C72.7185 45.0378 71.4026 44.5865 70.2215 43.882C69.0404 43.1775 68.02 42.2355 67.2258 41.1162C65.7116 37.8972 65.5416 34.2122 66.7531 30.8687C68.5539 23.6973 71.1858 20.474 74.6489 17.8824C73.1231 17.3523 71.6134 17.8031 69.2362 19.1377C64.4869 21.8093 55.9193 27.0053 55.8311 27.0705C55.3814 27.3384 54.8661 27.4776 54.3419 27.4728C53.8521 27.4727 53.3705 27.3468 52.9439 27.1073L47.3226 23.9565L31.564 56.6688ZM37.7156 64.4024C37.8266 64.2507 37.9225 64.0881 38.0016 63.9169C38.3801 63.2883 38.7824 62.6736 39.2077 62.0742C39.7397 61.6601 40.3831 61.4122 41.0566 61.3617C41.7301 61.3113 42.4035 61.4606 42.9918 61.7909C43.2248 61.8601 43.4402 61.978 43.6237 62.1367C43.8072 62.2954 43.9546 62.4912 44.0559 62.7112C44.1573 62.9311 44.2103 63.17 44.2114 63.4119C44.2125 63.6538 44.1617 63.8932 44.0624 64.114C42.9804 67.5903 41.8785 71.3499 41.1353 73.9337C38.9486 72.724 36.2209 70.7068 35.9362 68.0549C36.4443 66.797 37.039 65.5766 37.7156 64.4024ZM62.7953 73.1047C62.8281 73.0503 62.8603 72.9961 62.892 72.9419C63.2132 72.6017 63.6385 72.3756 64.1026 72.2995C64.6516 72.2072 65.2139 72.2304 65.7533 72.3675C66.2928 72.5046 66.7974 72.7527 67.2346 73.0956C67.8093 73.4717 68.2385 74.031 68.4517 74.6817C68.6649 75.3324 68.6494 76.0359 68.4077 76.6767L62.3287 87.0461C61.8837 87.2044 61.4107 87.2703 60.9391 87.2396C60.4675 87.2089 60.0072 87.0823 59.5867 86.8676C58.2399 85.9267 57.258 84.5547 56.8049 82.9805C58.4446 80.4154 61.938 74.8983 62.7953 73.1047ZM57.6163 70.7331C57.6754 70.591 57.7462 70.4536 57.828 70.3224C58.5598 69.1466 59.1947 67.5855 58.0587 66.8008C57.2284 66.3495 56.2626 66.2105 55.3378 66.4092C54.413 66.6079 53.591 67.131 53.0218 67.883C50.5205 71.1901 48.2059 74.633 46.0886 78.1957C46.7121 79.6774 47.7742 81.3745 48.859 81.6946C49.7008 81.9432 50.8188 81.2192 51.563 80.6284C53.8248 77.1077 57.014 71.9976 57.6163 70.7331ZM141.875 55.7339L127.829 21.0612L116.965 24.6046C116.343 24.8067 115.67 24.7907 115.058 24.5593L114.716 24.4279C112.27 23.4886 98.2122 18.0892 94.2724 16.3205C91.7354 15.1873 89.0561 15.3034 82.8604 19.2642L81.636 20.0433C76.6618 23.1852 74.1647 24.7661 72.2854 32.2428C71.3231 36.0732 71.7672 37.6258 72.1174 38.1924C72.5673 38.9404 73.6094 39.2435 75.2694 39.6571C75.6258 39.7169 75.991 39.697 76.3386 39.599C76.6863 39.501 77.0077 39.3273 77.2796 39.0905C78.0827 38.4885 78.7535 37.7292 79.2505 36.8595C79.7475 35.9897 80.0603 35.0279 80.1696 34.0334C80.2068 33.6062 80.341 33.1931 80.5619 32.825C80.7829 32.4569 81.0849 32.1436 81.4452 31.9085L86.9263 28.3416C87.3583 28.062 87.8585 27.9043 88.3734 27.8854C88.8884 27.8664 89.3989 27.9869 89.8505 28.2339L89.8631 28.2408L89.8633 28.2408C90.4545 28.5618 109.331 38.8081 117.649 40.9831C118.116 41.1073 118.545 41.3459 118.896 41.6772L118.933 41.7122C119.832 42.5694 131.146 53.3555 135.956 58.3432L141.875 55.7339ZM149.904 60.4124L130.568 12.6824L148.165 6.42111L167.142 53.8395L149.904 60.4124ZM67.5991 89.6384C68.4931 91.1428 70.0905 93.3016 71.5853 92.6812C74.0671 91.395 75.9778 89.2342 76.9439 86.6211C77.1341 86.0428 77.2068 85.4327 77.1579 84.8262C77.109 84.2197 76.9395 83.6289 76.6592 83.0882C76.2261 82.666 75.7119 82.3351 75.1473 82.1151C74.5828 81.895 73.9795 81.7905 73.3734 81.8076L67.5991 89.6384Z" fill="#FFCA08"/>
</svg>
